<svg xmlns="http://www.w3.org/2000/svg" viewBox="0 0 895.29 189.45"><defs><style>.cls-1{fill:#fff;}.cls-2{opacity:0.25;}.cls-3{fill:#1a1a1a;}.cls-11,.cls-4{fill:#f72585;}.cls-5{fill:#666;}.cls-10,.cls-6,.cls-9{fill:none;}.cls-10,.cls-11,.cls-6,.cls-9{stroke:#000;}.cls-6{stroke-width:0.68px;}.cls-7{fill:#bbcade;}.cls-8{fill:#b7094c;}.cls-11,.cls-9{stroke-width:2.05px;}.cls-10{stroke-width:1.37px;}</style></defs><g id="Layer_2" data-name="Layer 2"><g id="Pigasus"><g id="LogoMarkDark"><path class="cls-1" d="M164.56,21.78l-2.85-.35s12.55,9,2.79,10.47c0,0-9.32,3-10.67,2.65s-35-10-35-10L103,35.33l-10.33-7S103.85,21,108.39,8.92c4.21-11.18,32.5-8.89,61.08,3.76,1.23.54,2.47,1.11,3.7,1.69a4,4,0,0,1,1.13,6.42c-1.23,1.17-3.32,1.93-6.87,1.35Z"/><path d="M91.75,29.78a1.68,1.68,0,0,1-.52-.51,1.74,1.74,0,0,1,.5-2.4c.17-.12,10.77-7.26,15-18.56,1.07-2.84,3.39-5,6.89-6.41,11.84-4.79,36.62-.3,60.27,10.9a5.83,5.83,0,0,1,3.23,4.33,5.51,5.51,0,0,1-1.65,4.92c-1.88,1.79-4.68,2.39-8.32,1.81h-.05c1.77,1.92,3.22,4.22,2.72,6.29-.45,1.86-2.16,3-5.09,3.48a1.74,1.74,0,1,1-.52-3.44c1.74-.26,2.2-.73,2.23-.85.25-1-2.56-4.18-5.78-6.49a1.74,1.74,0,0,1,1.23-3.13l5.72.7h.06c2.53.42,4.35.12,5.41-.89a2.07,2.07,0,0,0,.61-1.86,2.34,2.34,0,0,0-1.29-1.73C150,5.29,125.79.74,115,5.12c-2.56,1-4.22,2.52-4.94,4.41C105.33,22,94.12,29.45,93.64,29.77A1.75,1.75,0,0,1,91.75,29.78Z"/><g class="cls-2"><path class="cls-3" d="M100.9,21s6.91,4.11,19.32-2.71L102,31.36l-3,1s-5.3-4.17-5.06-4.15"/></g><g class="cls-2"><path class="cls-3" d="M174.3,20.79c-1.23,1.17-3.32,1.93-6.87,1.35l-2.87-.36c-5.89-2.44-14.15-5.79-14.54-6,22.16,5.55,19.45-3.15,19.45-3.15,1.23.54,2.47,1.11,3.7,1.69A4,4,0,0,1,174.3,20.79Z"/></g><path class="cls-4" d="M51,44.59l.22-19.7L63.78,35.17s53.57-18.39,96-2.06,52.88,39.79,56.8,69.27-6.26,49.6-32.18,66.68c0,0-.5,14.12-14.6,17.73,0,0-6.41.6-10.26-3.59,0,0-12.33,14.62-22-2.68,0,0-11.79.6-15.35-2,0,0-9.43,11.49-19.15,8.75S89.41,178.85,88.69,177c0,0-14,13.9-24.61,6.66S53.16,167.06,53.18,165c0,0-13.77-3.91-19.42-22.17,0,0-12-.57-21.6-8.86S1.25,111.39,1.24,107.59A40.77,40.77,0,0,1,16,77.79S5.27,56.87,27.15,45.37C27.15,45.37,36.64,40,51,44.59Z"/><path class="cls-5" d="M22.46,104.28c-.79,7.45-4.34,13.18-7.94,12.8s-5.87-6.73-5.08-14.17,4.33-13.18,7.93-12.8S23.24,96.83,22.46,104.28Z"/><path class="cls-3" d="M19.8,91.91s-6.43,2.19-7.86,10.66c-1.38,8.1,3.3,11.69,5.92,11.93h0A21.05,21.05,0,0,0,19.8,91.91"/><path class="cls-6" d="M22.35,104c-.79,7.44-4.34,13.17-7.93,12.79s-5.88-6.72-5.09-14.17,4.34-13.18,7.93-12.8S23.13,96.56,22.35,104Z"/><path class="cls-5" d="M58.41,109.1c-.95,8.41-6.36,14.7-12.08,14.05s-9.59-8-8.64-16.39,6.36-14.7,12.08-14.05S59.36,100.69,58.41,109.1Z"/><path class="cls-3" d="M52.68,94.26s-15.79,9-4.94,27.87c0,0,11.66-.12,9.48-21.1C57.22,101,54.81,94.05,52.68,94.26Z"/><path class="cls-6" d="M58,108.93c-1,8.41-6.36,14.7-12.09,14.06s-9.59-8-8.63-16.4,6.36-14.7,12.08-14S59,100.53,58,108.93Z"/><path class="cls-1" d="M50.71,46.29c.34,1.43-.88,1-9.78,11.41-5.48,6.43-22.08,22.87-25.41,15.15-4.94-11.43,1.2-24.68,12.8-29.21S49.76,42.23,50.71,46.29Z"/><path class="cls-7" d="M47.89,43.91S30.12,54.33,27.31,70.62l6.51-.33S47.62,49.71,52.19,46Z"/><path class="cls-8" d="M150,30.62l-2.74,14.05S216,68.44,168.68,132.81c0,0-17.06,24.38-55.83,32.88,0,0-1.76,14.93-5,20.32a49.19,49.19,0,0,0,13-7.28h0s15.26,2.58,37.41-2.27c0,0,8.21,7.24,18,4.69,0,0,7.77-6.83,7.71-11.87,0,0,38.78-17.37,33.12-68.32S158,27.79,150,30.62Z"/><path class="cls-8" d="M146.19,178.93s1.44,11.78,11.91,2.95c0,0-2.6-3.42-2.69-5.28C155.41,176.6,148.44,179,146.19,178.93Z"/><path class="cls-8" d="M74,170.74s-2.85,8.07-6.77,11.82c0,0,11.88,6.12,20.41-6.07l-.8-2.86Z"/><path class="cls-8" d="M58.73,77.34s16.59-.47,25.62,32.39c0,0,6.06,16.31-15.9,30.58,0,0-25.48,3.62-27,3,0,0,23-5.84,27.6-15.22s12.17-20.92-9.35-48.24C49,66.25,58.73,77.34,58.73,77.34Z"/><path class="cls-9" d="M50.79,44,51,24.34,63.56,34.62s53.58-18.39,96-2.06,52.88,39.79,56.8,69.27-6.26,49.6-32.18,66.68c0,0-.5,14.12-14.59,17.73,0,0-6.41.61-10.27-3.59,0,0-12.32,14.63-22-2.68,0,0-11.79.6-15.34-2,0,0-9.44,11.49-19.16,8.75s-13.62-8.4-14.33-10.22c0,0-14,13.89-24.61,6.65S52.94,166.51,53,164.4c0,0-13.76-3.91-19.41-22.17,0,0-12-.57-21.61-8.86S1,110.84,1,107a40.73,40.73,0,0,1,14.73-29.8S5.05,56.32,26.93,44.82C26.93,44.82,36.43,39.42,50.79,44Z"/><path d="M25,55.74c-.85,1.47-2.29,2.24-3.22,1.7s-1-2.16-.12-3.64,2.29-2.24,3.22-1.71S25.86,54.26,25,55.74Z"/><path class="cls-9" d="M65.87,34S35.08,56.51,34.25,71.39"/><path class="cls-9" d="M15.76,77.24s19-15.21,56.45,4.64"/><path class="cls-6" d="M38.26,143.24s26.62-1.54,30.19-2.93"/><path class="cls-6" d="M53.84,146.65s13.9-.05,17.44,1.73"/><path class="cls-10" d="M86.13,167s3.36,11,6.57,13.57"/><path class="cls-10" d="M53.69,164.11s24,9.61,34,8.54"/><path class="cls-10" d="M123.51,167.86a34.68,34.68,0,0,1-3.71,11.57"/><path class="cls-10" d="M157,175c-5.4,4-20.95,4.7-20.95,4.7"/><path class="cls-10" d="M155.57,176.22a24.21,24.21,0,0,0,4.06,6.33"/><path class="cls-1" d="M131.48,62.68A27.85,27.85,0,1,1,95.4,46.87,27.85,27.85,0,0,1,131.48,62.68Z"/><path class="cls-7" d="M119,49.36s21.29,27.76-23.33,48c0,0,12.91,7.93,27.73-3.55s10-29.54,6.1-36.25A18,18,0,0,0,119,49.36Z"/><path class="cls-10" d="M132,62.47A27.85,27.85,0,1,1,96,46.66,27.85,27.85,0,0,1,132,62.47Z"/><path d="M112.11,63.92a4.35,4.35,0,1,1-5.63-2.47A4.34,4.34,0,0,1,112.11,63.92Z"/><polyline class="cls-11" points="119.51 40.94 150.16 21.37 145.91 46.13"/><path class="cls-8" d="M148.5,23.6s-13.14,20.64-15.64,24.78c0,0,7.43,1.21,12-1.54Z"/><path class="cls-1" d="M261.3,42.78c-2.61.79-6.76.5-12.91-3.86,1.05.81,10.45,8.29,6.42,12.5-4.23,4.4-18.2-4.49-18.5-4.68.2.21,7.34,7.77,3.95,12.08s-12.67-4.49-13.1-4.89c.27.37,5.3,7.29,0,9.55s-11.89-6.54-12-6.76c.06.27,2.21,9.54-7.6,6.93l-5.14-5.22c-.45,5.79-5.39,7.05-11.12-.65-.64,5.74-6.46,7.76-11.72-1.36-.93,5-5.29,5.18-8,1.47,0,0-.52-.36-1.25-1-2.61-2.26-7.8-7.94.23-12.18a17.58,17.58,0,0,0,6.37-6l.12,0s5.89-8.08,11.24-15.49,10-10.71,22.77-9.11c11.6,1.45,43.12,6.55,52.05,21.31.29.48.55,1,.79,1.47A4.2,4.2,0,0,1,261.3,42.78Z"/><path class="cls-1" d="M176.51,39.41l-.76.84c.23-.28.45-.57.66-.86Z"/><path class="cls-1" d="M189.78,61.36l1.3-2.72A5.91,5.91,0,0,1,189.78,61.36Z"/><path d="M265.27,36.25c-3.48-7.23-12.14-13.16-25.74-17.61a158.2,158.2,0,0,0-28.34-6.07c-13.34-1.67-18.64,2-24.26,9.76-4.25,5.89-8.89,12.26-10.58,14.58l-.08,0-.16.27c-.13.24-.24.48-.35.73a9.56,9.56,0,0,1-.77,1.49,2.28,2.28,0,0,1-.33.36l1.87.55a1.62,1.62,0,0,0,1.74-.59c.06-.08,5.95-8.17,11.24-15.5,5.1-7.06,9.38-9.95,21.29-8.46,13.14,1.65,44.47,7.09,51.6,21.9a2.62,2.62,0,0,1,0,2.19,2.49,2.49,0,0,1-1.59,1.42c-2.95.9-7-.38-11.61-3.7a1.6,1.6,0,0,0-1.89,2.58c2.54,1.91,6.65,5.95,6.87,8.63a1.84,1.84,0,0,1-.55,1.55c-2.32,2.41-11-1.42-16.49-4.91a1.59,1.59,0,0,0-2,2.44c1.67,1.74,6,7.31,3.85,10a1.39,1.39,0,0,1-1.1.56c-2.56.18-7.28-3.35-9.66-5.62a1.59,1.59,0,0,0-2.37,2.11c.68.9,2.51,3.9,2,5.75A2,2,0,0,1,226.51,62c-3.5,1.48-8.63-4.14-10.15-6.23a1.6,1.6,0,0,0-2.84,1.31c.21.85.52,3.55-.68,4.71s-3.29.75-5,.31a1.59,1.59,0,0,0-1.76,2.38c.28.12.56.24.85.34a1,1,0,0,1,.3,0,7.85,7.85,0,0,1,1.84.57,5.29,5.29,0,0,0,1.64.3h0A5.72,5.72,0,0,0,216.71,61c2.73,2.68,6.95,5.66,11,3.93A5.21,5.21,0,0,0,231,61.46a6.21,6.21,0,0,0,.13-2.39c2.22,1.43,4.82,2.66,7,2.5a4.56,4.56,0,0,0,3.38-1.77c2-2.54,1.35-5.69,0-8.38.58.27,1.18.54,1.79.8,6.1,2.57,10.34,2.67,12.62.3a5.07,5.07,0,0,0,1.43-4,9.47,9.47,0,0,0-1.6-4.16,11,11,0,0,0,6,0,5.75,5.75,0,0,0,3.58-3.19A5.83,5.83,0,0,0,265.27,36.25Z"/><path d="M206,64.45c.32.14.64.27,1,.38a1.41,1.41,0,0,1,.29,0,5.37,5.37,0,0,1,.92.22,1.58,1.58,0,0,0,.42-2.53l-5.13-5.22a1.6,1.6,0,0,0-2.73,1c-.12,1.25-.46,2.92-1.8,3.23-2.51.2-5-2.81-6.45-4.71a1.57,1.57,0,0,0-1.11-.64,1.59,1.59,0,0,0-1.75,1.41c-.2,2.07-1.48,4.1-3.64,3.31s-3.9-3.21-5.11-5.28a1.87,1.87,0,0,0-1.42-.93,1.49,1.49,0,0,0-1.54,1.43c-.05,1.43-.41,3-1.86,3.5s-3.41-.55-4.55-1.74a7.24,7.24,0,0,0,1.8,2.24,4.26,4.26,0,0,0,6.28-.65A17.53,17.53,0,0,0,180.83,61c3.72,4.26,8.87,4.36,11.06.05a12.13,12.13,0,0,0,4.89,3.39,5,5,0,0,0,6.42-2.87Z"/><path d="M177.67,36.81a1.63,1.63,0,0,0-1.56.35h0c-.13.24-.24.48-.35.73a9.56,9.56,0,0,1-.77,1.49,2.14,2.14,0,0,1-.52.52,20.5,20.5,0,0,1-4.16,4.46A23.24,23.24,0,0,1,167.87,46a21.19,21.19,0,0,0,2.84-1,20.92,20.92,0,0,0,7.62-5.44A1.66,1.66,0,0,0,177.67,36.81Z"/><path d="M183.89,44.71c4-2,8.2-4.81,9.89-9.07a39.36,39.36,0,0,1,1.63-4.52c3-6.54,8.74-8,15.37-6.89a130.47,130.47,0,0,1,20.87,5.28,80.57,80.57,0,0,1,17.52,8,1.6,1.6,0,0,1-1.72,2.69c-10.54-6.52-22.79-10-34.91-12.21-2.79-.47-5.94-1.18-8.73-.67-4.68.79-6.63,5.11-8.29,9.08-2.31,4.46-7,7-11.63,8.31Z"/><path d="M202.71,36.45a10.58,10.58,0,0,1,5.18,9.67,12.26,12.26,0,0,1-5.18-9.67Z"/><path d="M210.8,33.9a11.08,11.08,0,0,1,8.87,8.4,19.35,19.35,0,0,1-8.87-8.4Z"/><g class="cls-2"><path d="M208.74,63.93c-.26,0-.54-.1-.82-.17C208.2,63.83,208.48,63.89,208.74,63.93Z"/></g><g class="cls-2"><path d="M261.3,42.78c-2.61.79-6.76.5-12.91-3.86,1.05.81,10.45,8.29,6.42,12.5-4.23,4.4-18.2-4.49-18.5-4.68.2.21,7.34,7.77,3.95,12.08s-12.67-4.49-13.1-4.89c.27.37,5.3,7.29,0,9.55s-11.89-6.54-12-6.76c.06.27,2.21,9.54-7.6,6.93l-5.14-5.22c-.45,5.79-5.39,7.05-11.12-.65-.64,5.74-6.46,7.76-11.72-1.36-.93,5-5.29,5.18-8,1.47,0,0-.52-.36-1.25-1,0,0,3.71.82,6.61-3s8.19.63,8.19.63c5,5,9.31.5,9.31.5,6.65,6.51,10.22.11,10.22.11,11.78,6.5,11.58-2.7,11.58-2.7,10.52,6.33,8.34-1.56,8.34-1.56,13.69,4.1,5.86-5.28,5.86-5.28l5.94,1.18s8.56-.63,8.07-4-21.66-9.8-31.4-12-23.41,11-23.41,11c-.56-.07,1.32-.31,4.09-9.62S201.58,22.4,210,21.67s34.9,7.77,45.12,12.52c3.82,1.78,6.32,1.87,8,1.28.29.48.55,1,.79,1.47A4.2,4.2,0,0,1,261.3,42.78Z"/></g><path class="cls-10" d="M35.56,71.51s29.31-2,37.52,31.23-32,47.64-58.24,33.19"/><path d="M315.1,71.87v69.07H301.29V58.05h82.88V106.4H328.92V92.59h41.44V71.87Z"/><path d="M411.8,140.94H398V58.05H411.8Z"/><path d="M508.5,58.05V71.87H439.43v55.25h55.25V106.4H453.24V92.59H508.5v48.35H425.61V58.05Z"/><path d="M536.12,154.75H522.31V58.05h82.88v82.89H591.38V106.4H549.94V92.59h41.44V71.87H536.12Z"/><path d="M701.89,58.05V71.87H632.82V92.59h69.07v48.35H619V127.12h69.07V106.4H619V58.05Z"/><path d="M784.77,127.12V58.05h13.82v82.89H715.7V58.05h13.82v69.07Z"/><path d="M895.29,58.05V71.87H826.22V92.59h69.07v48.35H812.4V127.12h69.07V106.4H812.4V58.05Z"/></g></g></g></svg>