<svg xmlns="http://www.w3.org/2000/svg" viewBox="0 0 859.3 139.89"><g id="Layer_2" data-name="Layer 2"><g id="Pigasus"><g id="PigasusWordmark"><path d="M20,20V119.9H0V0H119.9V69.94H40V50h60V20Z"/><path d="M159.87,119.9h-20V0h20Z"/><path d="M299.76,0V20H199.84V99.92h79.93v-30H219.82V50h79.94V119.9H179.85V0Z"/><path d="M339.72,139.89h-20V0h119.9V119.9h-20v-50h-60V50h60V20H339.72Z"/><path d="M579.53,0V20H479.61V50h99.92V119.9H459.63v-20h99.91v-30H459.63V0Z"/><path d="M699.43,99.92V0h20V119.9H599.51V0h20V99.92Z"/><path d="M859.3,0V20H759.38V50H859.3V119.9H739.4v-20h99.91v-30H739.4V0Z"/></g></g></g></svg>