<svg xmlns="http://www.w3.org/2000/svg" viewBox="0 0 543.99 387.67"><defs><style>.cls-1{fill:#fff;}.cls-2{opacity:0.25;}.cls-3{fill:#1a1a1a;}.cls-11,.cls-4{fill:#f72585;}.cls-5{fill:#666;}.cls-10,.cls-6,.cls-9{fill:none;}.cls-10,.cls-11,.cls-6,.cls-9{stroke:#000;}.cls-6{stroke-width:1.4px;}.cls-7{fill:#bbcade;}.cls-8{fill:#b7094c;}.cls-11,.cls-9{stroke-width:4.2px;}.cls-10{stroke-width:2.8px;}</style></defs><g id="Layer_2" data-name="Layer 2"><g id="Pigasus"><g id="PigasusLogo"><path class="cls-1" d="M336.74,44.58l-5.85-.72s25.69,18.39,5.72,21.42c0,0-19.07,6-21.84,5.43s-71.64-20.55-71.64-20.55L210.8,72.29,189.66,57.94s22.85-15.06,32.13-39.69c8.62-22.88,66.51-18.19,125,7.69q3.8,1.68,7.58,3.47a8.13,8.13,0,0,1,2.31,13.14c-2.52,2.39-6.81,3.93-14.07,2.75Z"/><path d="M187.75,60.94a3.62,3.62,0,0,1-1.06-1,3.56,3.56,0,0,1,1-4.93c.35-.23,22.05-14.84,30.76-38,2.19-5.81,6.93-10.22,14.09-13.11,24.24-9.8,74.95-.62,123.33,22.31a11.86,11.86,0,0,1,6.61,8.85,11.24,11.24,0,0,1-3.37,10.08c-3.85,3.65-9.58,4.89-17,3.69H342c3.62,3.92,6.58,8.62,5.56,12.87-.91,3.81-4.41,6.2-10.41,7.11a3.55,3.55,0,0,1-1.06-7c3.57-.54,4.51-1.51,4.56-1.74.51-2.1-5.24-8.56-11.82-13.28a3.56,3.56,0,0,1,2.51-6.42L343,41.77l.14,0c5.17.85,8.89.23,11.05-1.82a4.22,4.22,0,0,0,1.25-3.8,4.72,4.72,0,0,0-2.64-3.55c-46-21.79-95.44-31.1-117.62-22.14-5.24,2.11-8.64,5.15-10.1,9-9.57,25.41-32.52,40.76-33.5,41.4A3.55,3.55,0,0,1,187.75,60.94Z"/><g class="cls-2"><path class="cls-3" d="M206.47,42.86S220.6,51.28,246,37.32L208.76,64.16l-6.15,2s-10.85-8.54-10.36-8.49"/></g><g class="cls-2"><path class="cls-3" d="M356.67,42.55c-2.52,2.39-6.81,3.93-14.07,2.75l-5.86-.72c-12.07-5-29-11.87-29.76-12.19,45.35,11.35,39.8-6.45,39.8-6.45q3.8,1.68,7.58,3.47A8.13,8.13,0,0,1,356.67,42.55Z"/></g><path class="cls-4" d="M104.36,91.25l.44-40.32,25.71,21S240.13,34.34,327,67.75,435.22,149.17,443.24,209.5,430.43,311,377.39,346c0,0-1,28.89-29.87,36.27,0,0-13.12,1.24-21-7.34,0,0-25.23,29.92-45.1-5.48,0,0-24.13,1.22-31.4-4.14,0,0-19.31,23.52-39.2,17.9S183,366,181.49,362.24c0,0-28.61,28.44-50.36,13.63s-22.35-34-22.32-38.34c0,0-28.16-8-39.73-45.36,0,0-24.63-1.17-44.21-18.13S2.55,227.93,2.54,220.17s3-38.74,30.14-61c0,0-21.9-42.82,22.87-66.35C55.55,92.83,75,81.79,104.36,91.25Z"/><path class="cls-5" d="M46,213.39c-1.61,15.24-8.87,27-16.23,26.18s-12-13.75-10.41-29,8.87-27,16.23-26.18S47.56,198.15,46,213.39Z"/><path class="cls-3" d="M40.51,188.07s-13.14,4.48-16.08,21.82c-2.81,16.57,6.75,23.91,12.12,24.41h0s17-19.58,4-46.23"/><path class="cls-6" d="M45.73,212.83c-1.61,15.24-8.87,27-16.23,26.18s-12-13.76-10.41-29,8.87-27,16.23-26.18S47.34,197.59,45.73,212.83Z"/><path class="cls-5" d="M119.52,223.25c-1.94,17.21-13,30.08-24.72,28.76s-19.63-16.35-17.68-33.56,13-30.07,24.72-28.75S121.47,206.05,119.52,223.25Z"/><path class="cls-3" d="M107.79,192.87s-32.3,18.45-10.1,57c0,0,23.86-.26,19.39-43.19C117.08,206.73,112.16,192.46,107.79,192.87Z"/><path class="cls-6" d="M118.74,222.91c-1.95,17.21-13,30.08-24.72,28.75s-19.63-16.34-17.68-33.55,13-30.07,24.72-28.75S120.69,205.71,118.74,222.91Z"/><path class="cls-1" d="M103.77,94.72c.69,2.93-1.81,2-20,23.36-11.21,13.14-45.19,46.79-52,31C21.66,125.67,34.21,98.58,58,89.3S101.82,86.41,103.77,94.72Z"/><path class="cls-7" d="M98,89.85s-36.36,21.33-42.12,54.66l13.34-.68s28.23-42.11,37.59-49.65Z"/><path class="cls-8" d="M306.89,62.66,301.28,91.4S442,140,345.17,271.76c0,0-34.91,49.9-114.24,67.28,0,0-3.61,30.55-10.31,41.59a100.19,100.19,0,0,0,26.56-14.91h0s31.21,5.3,76.54-4.64c0,0,16.79,14.81,36.77,9.6,0,0,15.91-14,15.77-24.29,0,0,79.37-35.53,67.79-139.8S323.4,56.86,306.89,62.66Z"/><path class="cls-8" d="M299.15,366.15s2.94,24.1,24.37,6c0,0-5.32-7-5.51-10.8C318,361.37,303.74,366.3,299.15,366.15Z"/><path class="cls-8" d="M151.43,349.38s-5.85,16.52-13.86,24.19c0,0,24.31,12.52,41.77-12.43l-1.64-5.84Z"/><path class="cls-8" d="M120.17,158.25s34-1,52.44,66.29c0,0,12.38,33.37-32.55,62.57,0,0-52.14,7.42-55.27,6.05,0,0,47.14-11.94,56.49-31.13s24.89-42.81-19.14-98.72C100.3,135.57,120.17,158.25,120.17,158.25Z"/><path class="cls-9" d="M103.92,90.13l.44-40.32,25.71,21s109.63-37.64,196.5-4.22S434.78,148.05,442.8,208.37,430,309.86,377,344.83c0,0-1,28.89-29.87,36.27,0,0-13.12,1.24-21-7.34,0,0-25.22,29.92-45.1-5.49,0,0-24.12,1.23-31.4-4.13,0,0-19.31,23.51-39.2,17.9s-27.86-17.18-29.33-20.92c0,0-28.6,28.44-50.36,13.62s-22.35-34-22.32-38.34c0,0-28.16-8-39.73-45.35,0,0-24.63-1.17-44.21-18.13S2.11,226.81,2.1,219s3-38.73,30.14-61c0,0-21.9-42.82,22.87-66.35C55.11,91.71,74.54,80.66,103.92,90.13Z"/><path d="M51.16,114.05c-1.75,3-4.7,4.59-6.59,3.5s-2-4.43-.25-7.46,4.69-4.59,6.59-3.49S52.91,111,51.16,114.05Z"/><path class="cls-9" d="M134.78,69.66s-63,46-64.69,76.42"/><path class="cls-9" d="M32.24,158.06S71,126.93,147.76,167.55"/><path class="cls-6" d="M78.3,293.11s54.46-3.14,61.76-6"/><path class="cls-6" d="M110.16,300.09s28.46-.11,35.71,3.54"/><path class="cls-10" d="M176.25,341.62s6.87,22.57,13.44,27.78"/><path class="cls-10" d="M109.87,335.82S159,355.48,179.51,353.3"/><path class="cls-10" d="M252.74,343.48c-2.14,14.43-7.59,23.68-7.59,23.68"/><path class="cls-10" d="M321.28,358.15c-11,8.2-42.87,9.62-42.87,9.62"/><path class="cls-10" d="M318.35,360.59c2.63,6.74,8.29,13,8.29,13"/><path class="cls-1" d="M269.05,128.27a57,57,0,1,1-73.83-32.36A57,57,0,0,1,269.05,128.27Z"/><path class="cls-7" d="M243.51,101s43.56,56.81-47.73,98.29c0,0,26.41,16.24,56.73-7.26S273,131.6,265,117.87A36.8,36.8,0,0,0,243.51,101Z"/><path class="cls-10" d="M270.18,127.83a57,57,0,1,1-73.84-32.36A57,57,0,0,1,270.18,127.83Z"/><path d="M229.41,130.8a8.9,8.9,0,1,1-11.53-5.05A8.9,8.9,0,0,1,229.41,130.8Z"/><polyline class="cls-11" points="244.55 83.77 307.26 43.73 298.56 94.4"/><path class="cls-8" d="M303.87,48.3S277,90.53,271.87,99c0,0,15.21,2.48,24.67-3.16Z"/><path class="cls-1" d="M534.7,87.54c-5.35,1.62-13.85,1-26.42-7.89,2.14,1.65,21.39,17,13.13,25.57-8.65,9-37.24-9.19-37.85-9.57.41.42,15,15.89,8.09,24.71s-25.94-9.18-26.81-10c.54.74,10.84,14.92-.07,19.54s-24.33-13.38-24.67-13.83c.13.55,4.53,19.52-15.55,14.18l-10.5-10.68c-.92,11.83-11,14.43-22.76-1.34-1.32,11.75-13.23,15.89-24-2.77-1.91,10.25-10.82,10.6-16.35,3a31.13,31.13,0,0,1-2.55-2c-5.36-4.62-16-16.26.46-24.93a36.13,36.13,0,0,0,13-12.28l.24.08s12.05-16.53,23-31.7S405.68,25.7,431.75,29C455.48,32,520,42.39,538.24,72.58c.6,1,1.14,2,1.64,3A8.61,8.61,0,0,1,534.7,87.54Z"/><path class="cls-1" d="M361.2,80.65l-1.56,1.71c.46-.58.91-1.16,1.33-1.76Z"/><path class="cls-1" d="M388.34,125.56,391,120A12.15,12.15,0,0,1,388.34,125.56Z"/><path d="M542.82,74.18c-7.13-14.81-24.85-26.93-52.67-36-21-6.87-43.12-10.54-58-12.41-27.31-3.43-38.15,4-49.66,20-8.69,12.05-18.19,25.09-21.64,29.84l-.16,0c-.11.19-.23.37-.33.56-.26.48-.49,1-.71,1.49a18.41,18.41,0,0,1-1.59,3,4.26,4.26,0,0,1-.66.74l3.82,1.12a3.3,3.3,0,0,0,3.56-1.21c.12-.17,12.17-16.71,23-31.71C398.23,35.08,407,29.15,431.35,32.21c26.89,3.38,91,14.5,105.58,44.8a5.4,5.4,0,0,1,.07,4.5,5.13,5.13,0,0,1-3.25,2.91c-6,1.83-14.26-.79-23.76-7.58a3.27,3.27,0,0,0-3.86,5.27c5.2,3.92,13.61,12.19,14,17.66a3.81,3.81,0,0,1-1.13,3.18c-4.74,4.94-22.58-2.91-33.73-10.06a3.27,3.27,0,0,0-4.12,5c3.41,3.56,12.19,15,7.88,20.45a2.89,2.89,0,0,1-2.25,1.13c-5.24.38-14.9-6.86-19.76-11.51a3.27,3.27,0,0,0-4.87,4.33c1.4,1.85,5.14,8,4.13,11.77-.22.79-.74,1.93-2.84,2.82-7.16,3-17.64-8.48-20.75-12.75a3.27,3.27,0,0,0-5.82,2.68c.42,1.75,1.07,7.26-1.38,9.65-2.21,2.16-6.74,1.53-10.15.62a3.27,3.27,0,0,0-3.62,4.88q.87.38,1.74.69a2.08,2.08,0,0,1,.61,0,15.84,15.84,0,0,1,3.77,1.16,11.55,11.55,0,0,0,3.35.63l.11,0,0,0a11.7,11.7,0,0,0,12.11-9.59c5.59,5.49,14.22,11.59,22.6,8a10.69,10.69,0,0,0,6.59-7.15,12.78,12.78,0,0,0,.27-4.89c4.54,2.94,9.85,5.45,14.39,5.13a9.44,9.44,0,0,0,6.93-3.62c4.08-5.21,2.75-11.65.07-17.16,1.17.55,2.4,1.1,3.64,1.63,12.48,5.27,21.18,5.48,25.83.63a10.33,10.33,0,0,0,2.92-8.23,19.12,19.12,0,0,0-3.27-8.52,22.51,22.51,0,0,0,12.23-.06A11.73,11.73,0,0,0,543,84.14,11.91,11.91,0,0,0,542.82,74.18Z"/><path d="M421.57,131.88c.65.28,1.31.56,2,.79a2.81,2.81,0,0,1,.58,0,12.55,12.55,0,0,1,1.9.45,3.23,3.23,0,0,0,.86-5.17l-10.5-10.68a3.26,3.26,0,0,0-5.58,2c-.25,2.56-.95,6-3.69,6.61-5.14.41-10.16-5.74-13.19-9.63a3.26,3.26,0,0,0-5.87,1.58c-.41,4.23-3,8.38-7.45,6.76s-8-6.57-10.46-10.8a3.8,3.8,0,0,0-2.9-1.9,3,3,0,0,0-3.14,2.93c-.1,2.93-.84,6.08-3.81,7.17-3.24,1-7-1.14-9.32-3.57a14.77,14.77,0,0,0,3.7,4.57c4.88,3.77,9.67,2.41,12.84-1.31.78,1.07,1.61,2.11,2.51,3.12,7.62,8.72,18.16,8.92,22.63.11a25.06,25.06,0,0,0,10,6.94c6.18,2.05,10.87-1,13.15-5.88Z"/><path d="M363.56,75.31a3.37,3.37,0,0,0-3.19.72h0c-.26.48-.49,1-.71,1.49a18.41,18.41,0,0,1-1.59,3A4.36,4.36,0,0,1,357,81.66a42.29,42.29,0,0,1-13.5,12.5A43.95,43.95,0,0,0,364.92,81,3.43,3.43,0,0,0,363.56,75.31Z"/><path d="M376.28,91.48c8.18-4.06,16.79-9.84,20.25-18.54a77.2,77.2,0,0,1,3.34-9.27c6.06-13.38,17.87-16.37,31.44-14.08,14.56,2.2,28.74,6.23,42.71,10.8,12.47,4.19,24.65,9.29,35.85,16.37a3.26,3.26,0,0,1-3.52,5.5c-21.57-13.33-46.64-20.38-71.43-25-5.71-1-12.17-2.42-17.86-1.37-9.58,1.61-13.57,10.44-17,18.57-4.72,9.13-14.36,14.23-23.8,17Z"/><path d="M414.8,74.58c6.63,3.63,11.36,12.24,10.6,19.79a25.11,25.11,0,0,1-10.6-19.79Z"/><path d="M431.36,69.36c8.38,1,16.62,8.92,18.14,17.19-7.37-3.16-14.47-10.07-18.14-17.19Z"/><g class="cls-2"><path d="M427.15,130.83c-.54-.1-1.11-.22-1.7-.36C426,130.61,426.6,130.73,427.15,130.83Z"/></g><g class="cls-2"><path d="M534.7,87.54c-5.35,1.62-13.85,1-26.42-7.89,2.14,1.65,21.39,17,13.13,25.57-8.65,9-37.24-9.19-37.85-9.57.41.42,15,15.89,8.09,24.71s-25.94-9.18-26.81-10c.54.74,10.84,14.92-.07,19.54s-24.33-13.38-24.67-13.83c.13.55,4.53,19.52-15.55,14.18l-10.5-10.68c-.92,11.83-11,14.43-22.76-1.34-1.32,11.75-13.23,15.89-24-2.77-1.91,10.25-10.82,10.6-16.35,3a31.13,31.13,0,0,1-2.55-2s7.57,1.67,13.51-6.23,16.75,1.29,16.75,1.29c10.31,10.16,19.06,1,19.06,1,13.61,13.31,20.92.23,20.92.23,24.1,13.29,23.69-5.54,23.69-5.54,21.53,13,17.07-3.18,17.07-3.18,28,8.39,12-10.82,12-10.82l12.16,2.42s17.5-1.28,16.51-8.23-44.32-20.07-64.26-24.54-47.9,22.57-47.9,22.57c-1.14-.13,2.71-.61,8.37-19.68s16.21-19.91,33.39-21.41S501.08,60.23,522,70c7.81,3.64,12.93,3.82,16.26,2.61.6,1,1.14,2,1.64,3A8.61,8.61,0,0,1,534.7,87.54Z"/></g><path class="cls-10" d="M72.77,146.33s60-4,76.77,63.91S84,307.71,30.37,278.15"/></g></g></g></svg>