<svg xmlns="http://www.w3.org/2000/svg" viewBox="0 0 583.23 94.94"><defs><style>.cls-1{fill:#b7094c;}</style></defs><g id="Layer_2" data-name="Layer 2"><g id="Pigasus"><g id="Wordmark_B7094C"><path class="cls-1" d="M13.56,13.56V81.38H0V0H81.38V47.47H27.13V33.91H67.82V13.56Z"/><path class="cls-1" d="M108.51,81.38H94.94V0h13.57Z"/><path class="cls-1" d="M203.45,0V13.56H135.64V67.82h54.25V47.47H149.2V33.91h54.25V81.38H122.07V0Z"/><path class="cls-1" d="M230.58,94.94H217V0H298.4V81.38H284.83V47.47H244.14V33.91h40.69V13.56H230.58Z"/><path class="cls-1" d="M393.34,0V13.56H325.52V33.91h67.82V81.38H312V67.82h67.82V47.47H312V0Z"/><path class="cls-1" d="M474.72,67.82V0h13.57V81.38H406.91V0h13.56V67.82Z"/><path class="cls-1" d="M583.23,0V13.56H515.41V33.91h67.82V81.38H501.85V67.82h67.82V47.47H501.85V0Z"/></g></g></g></svg>